<svg xmlns="http://www.w3.org/2000/svg" xmlns:xlink="http://www.w3.org/1999/xlink" width="100" zoomAndPan="magnify" viewBox="0 0 75 60" height="80" preserveAspectRatio="xMidYMid meet" version="1.0"><defs><g/></defs><rect x="-7.5" width="90" fill="#ffffff" y="-6" height="72" fill-opacity="1"/><rect x="-7.5" width="90" fill="#ffffff" y="-6" height="72" fill-opacity="1"/><g fill="#b12341" fill-opacity="1"><g transform="translate(7.903022, 28.728418)"><g><path d="M 6.90625 -20.03125 C 8.90625 -20.03125 10.414062 -19.539062 11.4375 -18.5625 C 12.46875 -17.582031 12.984375 -16.226562 12.984375 -14.5 L 12.984375 -12.921875 L 9.0625 -12.921875 L 9.0625 -17.296875 C 9.0625 -18.003906 8.859375 -18.546875 8.453125 -18.921875 C 8.054688 -19.296875 7.539062 -19.484375 6.90625 -19.484375 C 6.269531 -19.484375 5.75 -19.296875 5.34375 -18.921875 C 4.945312 -18.546875 4.75 -18.003906 4.75 -17.296875 L 4.75 -2.296875 C 4.75 -1.609375 4.945312 -1.070312 5.34375 -0.6875 C 5.75 -0.300781 6.269531 -0.109375 6.90625 -0.109375 C 7.539062 -0.109375 8.054688 -0.300781 8.453125 -0.6875 C 8.859375 -1.070312 9.0625 -1.609375 9.0625 -2.296875 L 9.0625 -6.65625 L 12.984375 -6.65625 L 12.984375 -5.09375 C 12.984375 -3.351562 12.46875 -1.992188 11.4375 -1.015625 C 10.414062 -0.0351562 8.90625 0.453125 6.90625 0.453125 C 4.9375 0.453125 3.429688 -0.0351562 2.390625 -1.015625 C 1.359375 -1.992188 0.84375 -3.351562 0.84375 -5.09375 L 0.84375 -14.5 C 0.84375 -16.226562 1.359375 -17.582031 2.390625 -18.5625 C 3.429688 -19.539062 4.9375 -20.03125 6.90625 -20.03125 Z M 6.90625 -20.03125 "/></g></g></g><g fill="#b12341" fill-opacity="1"><g transform="translate(21.670891, 28.728418)"><g><path d="M 6.90625 -20.03125 C 8.90625 -20.03125 10.414062 -19.539062 11.4375 -18.5625 C 12.46875 -17.582031 12.984375 -16.226562 12.984375 -14.5 L 12.984375 -5.09375 C 12.984375 -3.351562 12.46875 -1.992188 11.4375 -1.015625 C 10.414062 -0.0351562 8.90625 0.453125 6.90625 0.453125 C 4.9375 0.453125 3.429688 -0.0351562 2.390625 -1.015625 C 1.359375 -1.992188 0.84375 -3.351562 0.84375 -5.09375 L 0.84375 -14.5 C 0.84375 -16.226562 1.359375 -17.582031 2.390625 -18.5625 C 3.429688 -19.539062 4.9375 -20.03125 6.90625 -20.03125 Z M 6.90625 -19.484375 C 6.269531 -19.484375 5.75 -19.296875 5.34375 -18.921875 C 4.945312 -18.546875 4.75 -18.003906 4.75 -17.296875 L 4.75 -2.296875 C 4.75 -1.609375 4.945312 -1.070312 5.34375 -0.6875 C 5.75 -0.300781 6.269531 -0.109375 6.90625 -0.109375 C 7.539062 -0.109375 8.054688 -0.300781 8.453125 -0.6875 C 8.859375 -1.070312 9.0625 -1.609375 9.0625 -2.296875 L 9.0625 -17.296875 C 9.0625 -18.003906 8.859375 -18.546875 8.453125 -18.921875 C 8.054688 -19.296875 7.539062 -19.484375 6.90625 -19.484375 Z M 6.90625 -19.484375 "/></g></g></g><g fill="#b12341" fill-opacity="1"><g transform="translate(35.43876, 28.728418)"><g><path d="M 3 -19.59375 L 3.015625 -19.59375 L 8.671875 -5.765625 L 13.125 -19.59375 L 17.046875 -19.59375 L 17.046875 0 L 13.125 0 L 13.125 -17.6875 L 7.5 0 L 6.9375 0 L 1.3125 -13.765625 L 1.3125 0 L 0.75 0 L 0.75 -19.59375 Z M 3 -19.59375 "/></g></g></g><g fill="#b12341" fill-opacity="1"><g transform="translate(53.292204, 28.728418)"><g><path d="M 8.78125 -19.59375 C 9.550781 -19.59375 10.253906 -19.398438 10.890625 -19.015625 C 11.523438 -18.628906 12.03125 -18.117188 12.40625 -17.484375 C 12.789062 -16.847656 12.984375 -16.148438 12.984375 -15.390625 L 12.984375 -10.40625 C 12.984375 -9.644531 12.789062 -8.945312 12.40625 -8.3125 C 12.03125 -7.675781 11.523438 -7.164062 10.890625 -6.78125 C 10.253906 -6.40625 9.550781 -6.21875 8.78125 -6.21875 L 4.75 -6.21875 L 4.75 0 L 0.84375 0 L 0.84375 -19.59375 Z M 4.75 -19.03125 L 4.75 -6.765625 L 6.46875 -6.765625 C 7.175781 -6.765625 7.785156 -7.015625 8.296875 -7.515625 C 8.804688 -8.023438 9.0625 -8.632812 9.0625 -9.34375 L 9.0625 -16.453125 C 9.0625 -17.160156 8.804688 -17.765625 8.296875 -18.265625 C 7.785156 -18.773438 7.175781 -19.03125 6.46875 -19.03125 Z M 4.75 -19.03125 "/></g></g></g><g fill="#151824" fill-opacity="1"><g transform="translate(1.823862, 46.873589)"><g><path d="M 3.640625 -9.671875 C 4.535156 -9.671875 5.21875 -9.429688 5.6875 -8.953125 C 6.164062 -8.472656 6.40625 -7.832031 6.40625 -7.03125 L 6.40625 -6.203125 L 5.0625 -6.203125 L 5.0625 -7.84375 C 5.0625 -8.238281 4.953125 -8.578125 4.734375 -8.859375 C 4.515625 -9.148438 4.148438 -9.296875 3.640625 -9.296875 C 3.140625 -9.296875 2.773438 -9.148438 2.546875 -8.859375 C 2.328125 -8.578125 2.21875 -8.238281 2.21875 -7.84375 L 2.21875 -1.53125 C 2.21875 -1.144531 2.328125 -0.804688 2.546875 -0.515625 C 2.773438 -0.222656 3.140625 -0.078125 3.640625 -0.078125 C 4.148438 -0.078125 4.515625 -0.222656 4.734375 -0.515625 C 4.953125 -0.804688 5.0625 -1.144531 5.0625 -1.53125 L 5.0625 -3.171875 L 6.40625 -3.171875 L 6.40625 -2.34375 C 6.40625 -1.539062 6.164062 -0.898438 5.6875 -0.421875 C 5.21875 0.0546875 4.535156 0.296875 3.640625 0.296875 C 2.734375 0.296875 2.039062 0.0546875 1.5625 -0.421875 C 1.082031 -0.898438 0.84375 -1.539062 0.84375 -2.34375 L 0.84375 -7.03125 C 0.84375 -7.832031 1.082031 -8.472656 1.5625 -8.953125 C 2.039062 -9.429688 2.734375 -9.671875 3.640625 -9.671875 Z M 3.640625 -9.671875 "/></g></g></g><g fill="#151824" fill-opacity="1"><g transform="translate(8.871084, 46.873589)"><g><path d="M 3.640625 -9.671875 C 4.535156 -9.671875 5.21875 -9.429688 5.6875 -8.953125 C 6.164062 -8.484375 6.40625 -7.835938 6.40625 -7.015625 L 6.40625 -2.359375 C 6.40625 -1.535156 6.164062 -0.882812 5.6875 -0.40625 C 5.21875 0.0625 4.535156 0.296875 3.640625 0.296875 C 2.734375 0.296875 2.039062 0.0625 1.5625 -0.40625 C 1.082031 -0.882812 0.84375 -1.535156 0.84375 -2.359375 L 0.84375 -7.015625 C 0.84375 -7.835938 1.082031 -8.484375 1.5625 -8.953125 C 2.039062 -9.429688 2.734375 -9.671875 3.640625 -9.671875 Z M 3.640625 -9.296875 C 3.140625 -9.296875 2.773438 -9.148438 2.546875 -8.859375 C 2.328125 -8.578125 2.21875 -8.238281 2.21875 -7.84375 L 2.21875 -1.53125 C 2.21875 -1.144531 2.328125 -0.804688 2.546875 -0.515625 C 2.773438 -0.222656 3.140625 -0.078125 3.640625 -0.078125 C 4.148438 -0.078125 4.515625 -0.222656 4.734375 -0.515625 C 4.953125 -0.804688 5.0625 -1.144531 5.0625 -1.53125 L 5.0625 -7.84375 C 5.0625 -8.238281 4.953125 -8.578125 4.734375 -8.859375 C 4.515625 -9.148438 4.148438 -9.296875 3.640625 -9.296875 Z M 3.640625 -9.296875 "/></g></g></g><g fill="#151824" fill-opacity="1"><g transform="translate(16.10574, 46.873589)"><g><path d="M 0.1875 -9 L 0.1875 -9.375 L 1.90625 -9.375 L 2.1875 -8.71875 C 2.519531 -9.351562 3.101562 -9.671875 3.9375 -9.671875 C 4.414062 -9.671875 4.8125 -9.566406 5.125 -9.359375 C 5.4375 -9.160156 5.660156 -8.878906 5.796875 -8.515625 C 5.929688 -8.878906 6.148438 -9.160156 6.453125 -9.359375 C 6.753906 -9.566406 7.140625 -9.671875 7.609375 -9.671875 C 8.285156 -9.671875 8.796875 -9.46875 9.140625 -9.0625 C 9.484375 -8.664062 9.65625 -8.15625 9.65625 -7.53125 L 9.65625 -0.375 L 10.390625 -0.375 L 10.390625 0 L 8.28125 0 L 8.28125 -7.796875 C 8.28125 -8.117188 8.191406 -8.398438 8.015625 -8.640625 C 7.847656 -8.890625 7.550781 -9.015625 7.125 -9.015625 C 6.707031 -9.015625 6.410156 -8.894531 6.234375 -8.65625 C 6.066406 -8.425781 5.984375 -8.140625 5.984375 -7.796875 L 5.984375 -6.28125 L 5.96875 -6.28125 L 5.96875 -0.375 L 6.71875 -0.375 L 6.71875 0 L 4.609375 0 L 4.609375 -7.796875 C 4.609375 -8.117188 4.519531 -8.398438 4.34375 -8.640625 C 4.175781 -8.890625 3.878906 -9.015625 3.453125 -9.015625 C 3.035156 -9.015625 2.734375 -8.894531 2.546875 -8.65625 C 2.359375 -8.425781 2.265625 -8.140625 2.265625 -7.796875 L 2.265625 -0.375 L 3 -0.375 L 3 0 L 0.1875 0 L 0.1875 -0.375 L 0.921875 -0.375 L 0.921875 -9 Z M 0.1875 -9 "/></g></g></g><g fill="#151824" fill-opacity="1"><g transform="translate(26.639095, 46.873589)"><g><path d="M 0.1875 -9 L 0.1875 -9.375 L 1.90625 -9.375 L 2.1875 -8.59375 C 2.53125 -9.3125 3.203125 -9.671875 4.203125 -9.671875 C 4.972656 -9.671875 5.546875 -9.453125 5.921875 -9.015625 C 6.296875 -8.585938 6.484375 -8.019531 6.484375 -7.3125 L 6.484375 -2.0625 C 6.484375 -1.382812 6.296875 -0.820312 5.921875 -0.375 C 5.546875 0.0703125 4.972656 0.296875 4.203125 0.296875 C 3.734375 0.296875 3.335938 0.207031 3.015625 0.03125 C 2.691406 -0.132812 2.441406 -0.375 2.265625 -0.6875 L 2.265625 3.375 L 3 3.375 L 3 3.75 L 0.1875 3.75 L 0.1875 3.375 L 0.921875 3.375 L 0.921875 -9 Z M 2.265625 -6.28125 L 2.265625 -1.796875 C 2.265625 -1.410156 2.378906 -1.070312 2.609375 -0.78125 C 2.847656 -0.5 3.21875 -0.359375 3.71875 -0.359375 C 4.226562 -0.359375 4.59375 -0.5 4.8125 -0.78125 C 5.03125 -1.070312 5.140625 -1.410156 5.140625 -1.796875 L 5.140625 -7.578125 C 5.140625 -7.984375 5.03125 -8.320312 4.8125 -8.59375 C 4.59375 -8.875 4.226562 -9.015625 3.71875 -9.015625 C 3.175781 -9.015625 2.796875 -8.875 2.578125 -8.59375 C 2.367188 -8.3125 2.265625 -7.972656 2.265625 -7.578125 Z M 2.265625 -6.28125 "/></g></g></g><g fill="#151824" fill-opacity="1"><g transform="translate(33.948721, 46.873589)"><g><path d="M 3.640625 -9.671875 C 4.535156 -9.671875 5.21875 -9.429688 5.6875 -8.953125 C 6.164062 -8.472656 6.40625 -7.832031 6.40625 -7.03125 L 6.40625 -4.5 L 2.21875 -4.5 L 2.21875 -1.53125 C 2.21875 -1.144531 2.328125 -0.804688 2.546875 -0.515625 C 2.773438 -0.222656 3.140625 -0.078125 3.640625 -0.078125 C 4.148438 -0.078125 4.515625 -0.222656 4.734375 -0.515625 C 4.953125 -0.804688 5.0625 -1.144531 5.0625 -1.53125 L 5.0625 -3 L 6.40625 -3 L 6.40625 -2.34375 C 6.40625 -1.539062 6.164062 -0.898438 5.6875 -0.421875 C 5.21875 0.0546875 4.535156 0.296875 3.640625 0.296875 C 2.734375 0.296875 2.039062 0.0546875 1.5625 -0.421875 C 1.082031 -0.898438 0.84375 -1.539062 0.84375 -2.34375 L 0.84375 -7.03125 C 0.84375 -7.832031 1.082031 -8.472656 1.5625 -8.953125 C 2.039062 -9.429688 2.734375 -9.671875 3.640625 -9.671875 Z M 2.21875 -4.875 L 5.0625 -4.875 L 5.0625 -7.84375 C 5.0625 -8.238281 4.953125 -8.578125 4.734375 -8.859375 C 4.515625 -9.148438 4.148438 -9.296875 3.640625 -9.296875 C 3.140625 -9.296875 2.773438 -9.148438 2.546875 -8.859375 C 2.328125 -8.578125 2.21875 -8.238281 2.21875 -7.84375 Z M 2.21875 -4.875 "/></g></g></g><g fill="#151824" fill-opacity="1"><g transform="translate(41.183377, 46.873589)"><g><path d="M 1.703125 -11.25 L 3.078125 -11.25 L 3.078125 -9.375 L 5.0625 -9.375 L 5.0625 -9 L 3.078125 -9 L 3.078125 -1.65625 C 3.078125 -0.800781 3.429688 -0.375 4.140625 -0.375 L 5.0625 -0.375 L 5.0625 0 L 3.6875 0 C 3.050781 0 2.5625 -0.179688 2.21875 -0.546875 C 1.875 -0.910156 1.703125 -1.453125 1.703125 -2.171875 L 1.703125 -9 L 0.1875 -9 L 0.1875 -9.375 L 1.703125 -9.375 Z M 1.703125 -11.25 "/></g></g></g><g fill="#151824" fill-opacity="1"><g transform="translate(46.431309, 46.873589)"><g><path d="M 0.78125 -13.125 L 2.40625 -13.125 L 2.40625 -11.53125 L 0.78125 -11.53125 Z M 0.1875 -9 L 0.1875 -9.375 L 2.265625 -9.375 L 2.265625 -0.375 L 3 -0.375 L 3 0 L 0.1875 0 L 0.1875 -0.375 L 0.921875 -0.375 L 0.921875 -9 Z M 0.1875 -9 "/></g></g></g><g fill="#151824" fill-opacity="1"><g transform="translate(49.61756, 46.873589)"><g><path d="M 1.703125 -11.25 L 3.078125 -11.25 L 3.078125 -9.375 L 5.0625 -9.375 L 5.0625 -9 L 3.078125 -9 L 3.078125 -1.65625 C 3.078125 -0.800781 3.429688 -0.375 4.140625 -0.375 L 5.0625 -0.375 L 5.0625 0 L 3.6875 0 C 3.050781 0 2.5625 -0.179688 2.21875 -0.546875 C 1.875 -0.910156 1.703125 -1.453125 1.703125 -2.171875 L 1.703125 -9 L 0.1875 -9 L 0.1875 -9.375 L 1.703125 -9.375 Z M 1.703125 -11.25 "/></g></g></g><g fill="#151824" fill-opacity="1"><g transform="translate(54.865491, 46.873589)"><g><path d="M 0.78125 -13.125 L 2.40625 -13.125 L 2.40625 -11.53125 L 0.78125 -11.53125 Z M 0.1875 -9 L 0.1875 -9.375 L 2.265625 -9.375 L 2.265625 -0.375 L 3 -0.375 L 3 0 L 0.1875 0 L 0.1875 -0.375 L 0.921875 -0.375 L 0.921875 -9 Z M 0.1875 -9 "/></g></g></g><g fill="#151824" fill-opacity="1"><g transform="translate(58.051743, 46.873589)"><g><path d="M 2.265625 -9 L 4.484375 -0.59375 L 6.671875 -9 L 5.96875 -9 L 5.96875 -9.375 L 7.78125 -9.375 L 7.78125 -9 L 7.046875 -9 L 4.71875 0 L 3.265625 0 L 0.921875 -9 L 0.1875 -9 L 0.1875 -9.375 L 3 -9.375 L 3 -9 Z M 2.265625 -9 "/></g></g></g><g fill="#151824" fill-opacity="1"><g transform="translate(65.92364, 46.873589)"><g><path d="M 3.640625 -9.671875 C 4.535156 -9.671875 5.21875 -9.429688 5.6875 -8.953125 C 6.164062 -8.472656 6.40625 -7.832031 6.40625 -7.03125 L 6.40625 -4.5 L 2.21875 -4.5 L 2.21875 -1.53125 C 2.21875 -1.144531 2.328125 -0.804688 2.546875 -0.515625 C 2.773438 -0.222656 3.140625 -0.078125 3.640625 -0.078125 C 4.148438 -0.078125 4.515625 -0.222656 4.734375 -0.515625 C 4.953125 -0.804688 5.0625 -1.144531 5.0625 -1.53125 L 5.0625 -3 L 6.40625 -3 L 6.40625 -2.34375 C 6.40625 -1.539062 6.164062 -0.898438 5.6875 -0.421875 C 5.21875 0.0546875 4.535156 0.296875 3.640625 0.296875 C 2.734375 0.296875 2.039062 0.0546875 1.5625 -0.421875 C 1.082031 -0.898438 0.84375 -1.539062 0.84375 -2.34375 L 0.84375 -7.03125 C 0.84375 -7.832031 1.082031 -8.472656 1.5625 -8.953125 C 2.039062 -9.429688 2.734375 -9.671875 3.640625 -9.671875 Z M 2.21875 -4.875 L 5.0625 -4.875 L 5.0625 -7.84375 C 5.0625 -8.238281 4.953125 -8.578125 4.734375 -8.859375 C 4.515625 -9.148438 4.148438 -9.296875 3.640625 -9.296875 C 3.140625 -9.296875 2.773438 -9.148438 2.546875 -8.859375 C 2.328125 -8.578125 2.21875 -8.238281 2.21875 -7.84375 Z M 2.21875 -4.875 "/></g></g></g></svg>